<svg width="49" height="48" viewBox="0 0 49 48" fill="none" xmlns="http://www.w3.org/2000/svg">
<path d="M12.6781 33.7736H14.2909C15.6051 47.5545 36.0937 46.2274 34.9887 31.8273L36.5716 31.432C37.3548 36.4296 34.0038 44.8313 25.6827 44.9568C17.3615 45.0823 13.1261 39.8179 12.6781 33.7736Z" fill="#BFAD89"/>
<path d="M2.79433 31.9857C5.87507 33.0551 7.90097 33.4352 11.9775 33.7736C12.2928 50.215 39.1938 49.8673 37.3548 31.2903C42.5001 29.8429 44.3491 28.9349 47.1275 27.2669L47.1102 27.2979C46.239 28.8605 45.7453 29.7462 40.1395 31.9857C40.1395 52.4006 11.9775 53.245 9.45555 34.8169C5.61374 34.1709 4.43864 33.446 2.79433 31.9857Z" fill="#BFAD89"/>
<path d="M19.3345 33.7736C23.5999 33.6267 25.9714 33.4355 30.1415 32.7734C29.9144 36.5919 28.6818 38.1946 25.6827 38.6319C22.525 39.0923 20.1834 37.9251 19.3345 33.7736Z" fill="#BFAD89"/>
<path d="M19.4087 12.4621H30.3332C41.1428 3.77279 33.8825 0.512515 28.4983 7.42836C28.4983 -2.43317 20.9239 -2.51897 20.9239 7.42836C17.3994 1.52903 7.00125 2.04183 19.4087 12.4621Z" fill="#932550"/>
<path d="M22.7605 32.5384C43.6209 30.9533 53.7856 24.1054 45.7939 20.7753C45.6551 22.5801 42.7904 24.1662 38.5992 25.4258C30.6556 27.8132 17.9469 29.0281 10.0007 28.3376C5.69999 27.9638 2.79433 27.032 2.79433 25.4258C-3.04148 28.327 1.90013 34.1235 22.7605 32.5384Z" fill="#932550"/>
<path d="M11.1441 24.6654L10.0007 28.3376C17.9469 29.0281 30.6556 27.8132 38.5992 25.4258L37.0304 21.7915C39.6616 22.0807 40.509 22.4361 41.0677 23.3632C44.4689 20.8878 42.5687 20.097 35.4154 19.2769C33.8331 17.0678 32.693 15.9502 30.3332 14.1131H26.2484L27.2933 18.8279L24.8234 17.0318L22.0686 18.8279L23.256 14.1131H19.4087C16.3928 16.0915 14.8771 17.6685 12.664 21.7915C6.99156 23.0058 3.21065 25.3922 7.91424 26.8207C7.9237 25.9812 8.63517 25.5101 11.1441 24.6654Z" fill="#932550"/>
</svg>
