<svg width="49" height="49" viewBox="0 0 49 49" fill="none" xmlns="http://www.w3.org/2000/svg">
<path d="M12.6605 34.3737H14.2734C15.5875 48.1545 36.0761 46.8275 34.9711 32.4274L36.554 32.0321C37.3372 37.0297 33.9862 45.4314 25.6651 45.5569C17.3439 45.6824 13.1085 40.418 12.6605 34.3737Z" fill="#BFAD89"/>
<path d="M2.77674 32.5858C5.85748 33.6552 7.88338 34.0353 11.9599 34.3737C12.2752 50.8151 39.1762 50.4674 37.3372 31.8904C42.4825 30.443 44.3315 29.535 47.1099 27.867L47.0926 27.898C46.2214 29.4606 45.7277 30.3463 40.1219 32.5858C40.1219 53.0006 11.9599 53.8451 9.43795 35.417C5.59615 34.771 4.42105 34.0461 2.77674 32.5858Z" fill="#BFAD89"/>
<path d="M19.3169 34.3737C23.5823 34.2268 25.9538 34.0356 30.1239 33.3735C29.8968 37.192 28.6642 38.7947 25.6651 39.232C22.5074 39.6924 20.1658 38.5252 19.3169 34.3737Z" fill="#BFAD89"/>
<path d="M19.3911 13.0622H30.3156C41.1252 4.37289 33.8649 1.11261 28.4807 8.02846C28.4807 -1.83308 20.9063 -1.91887 20.9063 8.02846C17.3818 2.12913 6.98366 2.64192 19.3911 13.0622Z" fill="#932550"/>
<path d="M22.7429 33.1385C43.6033 31.5534 53.768 24.7055 45.7763 21.3754C45.6375 23.1802 42.7728 24.7663 38.5816 26.0259C30.638 28.4133 17.9293 29.6282 9.98314 28.9377C5.68239 28.5639 2.77674 27.6321 2.77674 26.0259C-3.05907 28.9271 1.88254 34.7236 22.7429 33.1385Z" fill="#932550"/>
<path d="M11.1265 25.2655L9.98314 28.9377C17.9293 29.6282 30.638 28.4133 38.5816 26.0259L37.0128 22.3916C39.644 22.6808 40.4915 23.0362 41.0501 23.9633C44.4514 21.4879 42.5511 20.6971 35.3979 19.877C33.8155 17.6679 32.6754 16.5503 30.3156 14.7131H26.2308L27.2757 19.428L24.8058 17.6319L22.051 19.428L23.2384 14.7131H19.3911C16.3752 16.6916 14.8595 18.2686 12.6464 22.3916C6.97396 23.6059 3.19305 25.9923 7.89665 27.4208C7.90611 26.5813 8.61757 26.1102 11.1265 25.2655Z" fill="#932550"/>
</svg>
